Coordinates
version=1
nRows=17
nColumns=36
inDegrees=yes

Units are S.I. units (second, meters, Newtons, ...)
If the header above contains a line with 'inDegrees', this indicates whether rotational values are in degrees (yes) or radians (no).

endheader
time	pelvis_tilt	pelvis_list	pelvis_rotation	pelvis_tx	pelvis_ty	pelvis_tz	hip_flexion_r	hip_adduction_r	hip_rotation_r	knee_angle_r	knee_angle_r_beta	ankle_angle_r	subtalar_angle_r	mtp_angle_r	hip_flexion_l	hip_adduction_l	hip_rotation_l	knee_angle_l	knee_angle_l_beta	ankle_angle_l	subtalar_angle_l	mtp_angle_l	lumbar_extension	lumbar_bending	lumbar_rotation	arm_flex_r	arm_add_r	arm_rot_r	elbow_flex_r	pro_sup_r	arm_flex_l	arm_add_l	arm_rot_l	elbow_flex_l	pro_sup_l
      0.00000000	     -0.88722475	     -4.63332110	      5.71620497	     -0.04341129	      0.90420014	     -0.28561029	     20.75269324	      5.10075940	     -7.89758451	      1.51005116	      0.02635536	      1.49346024	      1.24747452	     -6.06778683	    -20.60966089	     -2.99511268	     -4.95797216	      7.20112944	      0.12568342	     16.54788079	     16.74260030	     -6.06778683	    -13.36182452	      6.99125813	    -14.67728254	    -11.32923697	     -9.14485520	    -13.29900622	     33.95106274	    102.31015926	      3.88393773	     -8.99421977	      3.60514499	     56.14027630	    101.06521412
      0.01000000	     -0.82858232	     -5.60939044	      5.64005368	     -0.03070896	      0.90450119	     -0.28679110	     20.19628259	      6.05901403	     -8.15456869	      1.78739354	      0.03119590	      0.39827078	      0.72367446	     -6.08862659	    -20.85487660	     -4.04527158	     -5.17245876	      8.19765273	      0.14307603	     15.60655068	     16.18756462	     -6.08862659	    -13.31949201	      9.07129043	    -14.55986296	    -11.05719042	     -9.64255469	    -13.40447323	     34.27638113	    102.30405404	      2.98827094	     -8.25662961	      3.32192105	     55.00496322	    100.94361017
      0.02000000	     -0.82097129	     -6.57453283	      5.55528241	     -0.01804511	      0.90479820	     -0.28792170	     19.66700904	      7.02853399	     -8.19191007	      2.01724337	      0.03520754	     -0.83010188	     -0.09719249	     -6.10866305	    -21.00508914	     -5.07892356	     -5.32700442	      9.26423340	      0.16169138	     14.60269602	     15.56645740	     -6.10866305	    -13.24970569	     11.13548773	    -14.42216487	    -10.82134336	    -10.14170417	    -13.55596020	     34.70156163	    102.30682689	      2.10970271	     -7.48501409	      3.01189644	     53.81732898	    100.81853891
      0.03000000	     -0.86096576	     -7.52274749	      5.45252151	     -0.00546464	      0.90513972	     -0.28900947	     19.18721926	      7.99861959	     -8.03513113	      2.26290606	      0.03949516	     -1.78567354	     -0.87455661	     -6.12422228	    -21.02027959	     -6.08279289	     -5.37445886	     10.48084503	      0.18292525	     13.53257382	     14.89922025	     -6.12422228	    -13.13470747	     13.17623812	    -14.28574083	    -10.56419036	    -10.63168561	    -13.73841691	     35.13061196	    102.31462036	      1.21988794	     -6.78874084	      2.80787566	     52.70945801	    100.71195340
      0.04000000	     -0.94133641	     -8.41263355	      5.32660117	      0.00694748	      0.90561663	     -0.29002590	     18.72614731	      8.94165324	     -7.69291466	      2.49022931	      0.04346270	     -2.77373321	     -1.77707977	     -6.14133801	    -20.81923521	     -7.02818366	     -5.35245565	     11.99581435	      0.20936646	     12.31505352	     14.03977300	     -6.14133801	    -13.03598927	     15.14076296	    -14.09271784	    -10.33180127	    -11.09433142	    -13.98495327	     35.66923096	    102.33076302	      0.37744272	     -6.06741936	      2.58212055	     51.51578543	    100.60719383
      0.05000000	     -1.19548189	     -9.16609842	      5.05894897	      0.01905070	      0.90612222	     -0.29076288	     18.31134406	      9.85606000	     -6.34986373	      2.44406751	      0.04265703	     -4.75246011	     -4.42750835	     -6.20633081	    -20.38256884	     -7.71497048	     -4.84603574	     13.58165438	      0.23704459	     10.85216430	     12.40011936	     -6.20633081	    -12.80900012	     16.92080244	    -13.57192715	    -10.35651434	    -11.38066226	    -14.96777793	     36.60159421	    102.36122852	     -0.25356907	     -5.32984393	      2.43989093	     50.04175247	    100.62483285
      0.06000000	     -1.27219249	     -9.95708214	      4.94141095	      0.03121812	      0.90691335	     -0.29162663	     17.78528984	     10.74582551	     -6.02515860	      2.63091075	      0.04591805	     -4.79583076	     -4.70671150	     -6.22192401	    -19.83968071	     -8.61061814	     -4.83550244	     15.65116819	      0.27316442	      9.37948448	     11.61930055	     -6.22192401	    -12.77932272	     18.76215899	    -13.44166187	     -9.96446291	    -11.78040529	    -15.22036728	     36.97711381	    102.37806925	     -1.22042139	     -4.86904619	      2.53809886	     49.12271173	    100.59402028
      0.07000000	     -1.48720327	    -10.63143579	      4.71957647	      0.04319724	      0.90773268	     -0.29227490	     17.38289086	     11.55058399	     -5.52059220	      2.81486174	      0.04912861	     -4.99713359	     -5.13968828	     -6.24165156	    -19.03692412	     -9.32609920	     -4.59158884	     17.90986744	      0.31258616	      7.75402951	     10.48344904	     -6.24165156	    -12.60579647	     20.40723348	    -13.17703239	     -9.66804628	    -12.16024980	    -15.62207876	     37.48198735	    102.38565894	     -2.09593328	     -4.38136029	      2.54974576	     48.03509762	    100.57121487
      0.08000000	     -1.74556160	    -11.11336140	      4.48047171	      0.05489342	      0.90872829	     -0.29286686	     16.90993036	     12.19696881	     -4.75377841	      2.79887300	      0.04884955	     -5.54583986	     -6.33733256	     -6.30117860	    -18.05943259	     -9.76884506	     -3.93932832	     20.31904209	      0.35463419	      5.70422872	      8.43318000	     -6.30117860	    -12.41949941	     21.82993366	    -12.70140434	     -9.55266931	    -12.33354750	    -16.72914866	     38.19676393	    102.35113372	     -2.75279942	     -3.95974212	      2.86140200	     46.68544390	    100.75753859
      0.09000000	     -1.80447963	    -11.61312657	      4.30622281	      0.06657528	      0.90995484	     -0.29333217	     16.18149978	     12.86241678	     -4.41746083	      2.72597911	      0.04757731	     -5.29623908	     -6.44921073	     -6.31585677	    -17.08131313	    -10.39767951	     -3.80046608	     23.08044860	      0.40282982	      4.04621202	      7.74885184	     -6.31585677	    -12.47673179	     23.19526713	    -12.49806474	     -9.09331988	    -12.61272776	    -17.00952156	     38.51417560	    102.34030516	     -3.69195735	     -3.71191152	      3.04032548	     45.93560133	    100.77943419
      0.10000000	     -1.92098555	    -11.98805957	      4.14507216	      0.07802213	      0.91120111	     -0.29368180	     15.47715262	     13.39433589	     -4.11308515	      2.59406498	      0.04527497	     -5.09621356	     -6.58543680	     -6.32962025	    -15.86941007	    -10.90434574	     -3.50630913	     26.06537696	      0.45492665	      2.30829855	      6.84565007	     -6.32962025	    -12.48010816	     24.37192302	    -12.27267962	     -8.67006361	    -12.79759880	    -17.32727190	     38.84144635	    102.31474382	     -4.57645551	     -3.53111240	      3.21891595	     45.15561831	    100.80592665
      0.11000000	     -2.14460133	    -12.30145672	      3.97648959	      0.08923165	      0.91235306	     -0.29397146	     14.88353575	     13.84579538	     -3.78513122	      2.46817001	      0.04307769	     -5.00048899	     -6.77522678	     -6.34872038	    -14.40766331	    -11.31576248	     -3.01228205	     29.18881346	      0.50944090	      0.42356207	      5.57907261	     -6.34872038	    -12.32387447	     25.43486221	    -12.05415473	     -8.26454150	    -12.94867725	    -17.78497240	     39.23384496	    102.26518301	     -5.40924440	     -3.41611176	      3.52571855	     44.36437543	    100.88946789
      0.12000000	     -2.36558585	    -12.35837184	      3.86201719	      0.10010944	      0.91353892	     -0.29423461	     14.29631119	     14.00891710	     -3.57852256	      2.34360337	      0.04090360	     -4.99981930	     -7.17862449	     -6.38917550	    -12.77281666	    -11.41708839	     -2.29484702	     32.45853009	      0.56650822	     -1.65327684	      3.75652873	     -6.38917550	    -12.18433857	     26.15239552	    -11.70831201	     -8.03147833	    -12.96103975	    -18.53791265	     39.74179939	    102.16138263	     -6.07143035	     -3.53638817	      4.11046963	     43.50111060	    101.14665826
      0.13000000	     -2.36392673	    -12.60192348	      3.78684412	      0.11092824	      0.91484769	     -0.29441509	     13.45176736	     14.38219690	     -3.28545142	      2.19136058	      0.03824646	     -4.59967357	     -7.17518296	     -6.40551589	    -11.30794810	    -11.82514972	     -1.78754930	     35.75498379	      0.62404219	     -3.19086128	      3.20181303	     -6.40551589	    -12.32757017	     27.03553652	    -11.45685694	     -7.54163440	    -13.00108198	    -18.78228756	     40.14114694	    102.13420537	     -6.88797526	     -3.57441395	      4.45273882	     43.09515095	    101.25636080
      0.14000000	     -2.51866691	    -12.68811290	      3.71026901	      0.12137945	      0.91593841	     -0.29449595	     12.85544170	     14.55653462	     -3.08429077	      2.17078100	      0.03788728	     -4.23984301	     -7.21184801	     -6.42532437	     -9.51693076	    -12.00608205	     -1.08200217	     39.15005138	      0.68329730	     -4.67771776	      2.24063649	     -6.42532437	    -12.29192873	     27.66771039	    -11.19718130	     -7.16415833	    -12.99132238	    -19.09424603	     40.62755272	    102.09560536	     -7.68730212	     -3.77628454	      4.81445376	     42.76947245	    101.40835004
      0.15000000	     -2.56542078	    -12.70557224	      3.63703670	      0.13165920	      0.91707916	     -0.29451947	     12.16904629	     14.66262410	     -2.90588513	      2.19413663	      0.03829491	     -3.74907720	     -7.19806300	     -6.44492796	     -7.78317704	    -12.09714166	     -0.39738680	     42.47475205	      0.74132427	     -5.87600137	      1.34406970	     -6.44492796	    -12.38814518	     28.17945008	    -10.85632909	     -6.80349908	    -12.97810067	    -19.35526916	     41.10919055	    102.00100901	     -8.43940402	     -4.02238643	      5.09377075	     42.55696426	    101.49098243
      0.16000000	     -2.58548336	    -12.71504946	      3.53959592	      0.14171823	      0.91815993	     -0.29441975	     11.46926867	     14.76452014	     -2.67567644	      2.23518162	      0.03901128	     -3.21372562	     -7.16669026	     -6.46130126	     -6.02119676	    -12.14269237	      0.30073452	     45.73019205	      0.79814242	     -6.71768738	      0.44830152	     -6.46130126	    -12.53074804	     28.59427554	    -10.44625181	     -6.43882853	    -12.93285179	    -19.54726222	     41.60862332	    101.92651366	     -9.15395240	     -4.32410978	      5.26893361	     42.46722965	    101.56456490
